<svg width="70" height="42" viewBox="0 0 70 42" fill="none" xmlns="http://www.w3.org/2000/svg">
<path d="M43.0577 33C51.8934 33 55.8733 5.57692 47.0376 5.57692C39.153 5.57692 36.7986 26.1698 41.758 26.1698C47.8807 26.1698 43.4922 2 36.4171 2C29.342 2 25.6286 26.1698 31.4577 26.1698C37.2867 26.1698 33.3651 5.57692 26.4982 5.57692C16.9608 5.57692 20.666 33 31.2123 33" stroke="#EE7C2F" stroke-width="3"/>
<mask id="path-2-outside-1_26_15" maskUnits="userSpaceOnUse" x="46" y="12" width="17" height="17" fill="black">
<rect fill="white" x="46" y="12" width="17" height="17"/>
<path d="M58.0948 25.96C57.6415 26.36 57.1082 26.66 56.4948 26.86C55.8815 27.06 55.2148 27.16 54.4948 27.16C53.7748 27.16 53.1082 27.06 52.4948 26.86C51.8815 26.66 51.3482 26.36 50.8948 25.96C50.4415 25.5733 50.0882 25.0867 49.8348 24.5C49.5815 23.9133 49.4548 23.24 49.4548 22.48V14.58H47.9148V13H52.7548V14.58H51.1148V22.42C51.1148 22.9267 51.1948 23.38 51.3548 23.78C51.5282 24.1667 51.7682 24.4933 52.0748 24.76C52.3682 25.0267 52.7215 25.2333 53.1348 25.38C53.5482 25.5133 54.0015 25.58 54.4948 25.58C54.9882 25.58 55.4415 25.5133 55.8548 25.38C56.2682 25.2333 56.6282 25.0267 56.9348 24.76C57.2282 24.4933 57.4615 24.1667 57.6348 23.78C57.8082 23.38 57.8948 22.9267 57.8948 22.42V14.58H56.2548V13H61.0948V14.58H59.5548V22.48C59.5548 23.24 59.4215 23.9133 59.1548 24.5C58.9015 25.0867 58.5482 25.5733 58.0948 25.96Z"/>
</mask>
<path d="M58.0948 25.96C57.6415 26.36 57.1082 26.66 56.4948 26.86C55.8815 27.06 55.2148 27.16 54.4948 27.16C53.7748 27.16 53.1082 27.06 52.4948 26.86C51.8815 26.66 51.3482 26.36 50.8948 25.96C50.4415 25.5733 50.0882 25.0867 49.8348 24.5C49.5815 23.9133 49.4548 23.24 49.4548 22.48V14.58H47.9148V13H52.7548V14.58H51.1148V22.42C51.1148 22.9267 51.1948 23.38 51.3548 23.78C51.5282 24.1667 51.7682 24.4933 52.0748 24.76C52.3682 25.0267 52.7215 25.2333 53.1348 25.38C53.5482 25.5133 54.0015 25.58 54.4948 25.58C54.9882 25.58 55.4415 25.5133 55.8548 25.38C56.2682 25.2333 56.6282 25.0267 56.9348 24.76C57.2282 24.4933 57.4615 24.1667 57.6348 23.78C57.8082 23.38 57.8948 22.9267 57.8948 22.42V14.58H56.2548V13H61.0948V14.58H59.5548V22.48C59.5548 23.24 59.4215 23.9133 59.1548 24.5C58.9015 25.0867 58.5482 25.5733 58.0948 25.96Z" fill="#432456"/>
<path d="M58.0948 25.96L57.4459 25.1992L57.4395 25.2046L57.4332 25.2102L58.0948 25.96ZM56.4948 26.86L56.1848 25.9093L56.1848 25.9093L56.4948 26.86ZM52.4948 26.86L52.1848 27.8107L52.1848 27.8107L52.4948 26.86ZM50.8948 25.96L51.5565 25.2102L51.5502 25.2046L51.5438 25.1992L50.8948 25.96ZM49.8348 24.5L50.7529 24.1036L50.7529 24.1036L49.8348 24.5ZM49.4548 14.58H50.4548V13.58H49.4548V14.58ZM47.9148 14.58H46.9148V15.58H47.9148V14.58ZM47.9148 13V12H46.9148V13H47.9148ZM52.7548 13H53.7548V12H52.7548V13ZM52.7548 14.58V15.58H53.7548V14.58H52.7548ZM51.1148 14.58V13.58H50.1148V14.58H51.1148ZM51.3548 23.78L50.4264 24.1514L50.434 24.1704L50.4423 24.1891L51.3548 23.78ZM52.0748 24.76L52.7475 24.0201L52.7394 24.0126L52.731 24.0054L52.0748 24.76ZM53.1348 25.38L52.8004 26.3224L52.8141 26.3273L52.8278 26.3317L53.1348 25.38ZM55.8548 25.38L56.1618 26.3317L56.1756 26.3273L56.1893 26.3224L55.8548 25.38ZM56.9348 24.76L57.591 25.5146L57.5994 25.5074L57.6075 25.4999L56.9348 24.76ZM57.6348 23.78L58.5474 24.1891L58.5524 24.1776L57.6348 23.78ZM57.8948 14.58H58.8948V13.58H57.8948V14.58ZM56.2548 14.58H55.2548V15.58H56.2548V14.58ZM56.2548 13V12H55.2548V13H56.2548ZM61.0948 13H62.0948V12H61.0948V13ZM61.0948 14.58V15.58H62.0948V14.58H61.0948ZM59.5548 14.58V13.58H58.5548V14.58H59.5548ZM59.1548 24.5L58.2445 24.0862L58.2405 24.0948L58.2368 24.1036L59.1548 24.5ZM57.4332 25.2102C57.0889 25.514 56.6773 25.7487 56.1848 25.9093L56.8049 27.8107C57.539 27.5713 58.1941 27.206 58.7565 26.7098L57.4332 25.2102ZM56.1848 25.9093C55.6825 26.0731 55.1216 26.16 54.4948 26.16V28.16C55.308 28.16 56.0805 28.0469 56.8049 27.8107L56.1848 25.9093ZM54.4948 26.16C53.868 26.16 53.3072 26.0731 52.8049 25.9093L52.1848 27.8107C52.9091 28.0469 53.6816 28.16 54.4948 28.16V26.16ZM52.8049 25.9093C52.3124 25.7487 51.9008 25.514 51.5565 25.2102L50.2332 26.7098C50.7956 27.206 51.4506 27.5713 52.1848 27.8107L52.8049 25.9093ZM51.5438 25.1992C51.2152 24.9189 50.9501 24.5602 50.7529 24.1036L48.9168 24.8964C49.2263 25.6132 49.6678 26.2278 50.2459 26.7208L51.5438 25.1992ZM50.7529 24.1036C50.5629 23.6634 50.4548 23.129 50.4548 22.48H48.4548C48.4548 23.351 48.6002 24.1632 48.9168 24.8964L50.7529 24.1036ZM50.4548 22.48V14.58H48.4548V22.48H50.4548ZM49.4548 13.58H47.9148V15.58H49.4548V13.58ZM48.9148 14.58V13H46.9148V14.58H48.9148ZM47.9148 14H52.7548V12H47.9148V14ZM51.7548 13V14.58H53.7548V13H51.7548ZM52.7548 13.58H51.1148V15.58H52.7548V13.58ZM50.1148 14.58V22.42H52.1148V14.58H50.1148ZM50.1148 22.42C50.1148 23.0319 50.2116 23.6144 50.4264 24.1514L52.2833 23.4086C52.1781 23.1456 52.1148 22.8215 52.1148 22.42H50.1148ZM50.4423 24.1891C50.6724 24.7023 50.9978 25.1486 51.4187 25.5146L52.731 24.0054C52.5386 23.838 52.3839 23.631 52.2674 23.3709L50.4423 24.1891ZM51.4022 25.4999C51.8037 25.8649 52.2754 26.1361 52.8004 26.3224L53.4693 24.4376C53.1677 24.3306 52.9327 24.1884 52.7475 24.0201L51.4022 25.4999ZM52.8278 26.3317C53.3528 26.5011 53.9112 26.58 54.4948 26.58V24.58C54.0918 24.58 53.7435 24.5256 53.4418 24.4283L52.8278 26.3317ZM54.4948 26.58C55.0785 26.58 55.6369 26.5011 56.1618 26.3317L55.5478 24.4283C55.2461 24.5256 54.8979 24.58 54.4948 24.58V26.58ZM56.1893 26.3224C56.7112 26.1372 57.1826 25.8698 57.591 25.5146L56.2787 24.0054C56.0738 24.1835 55.8251 24.3295 55.5204 24.4376L56.1893 26.3224ZM57.6075 25.4999C58.0096 25.1344 58.3216 24.6926 58.5474 24.1891L56.7223 23.3709C56.6014 23.6408 56.4467 23.8523 56.2622 24.0201L57.6075 25.4999ZM58.5524 24.1776C58.7882 23.6334 58.8948 23.0415 58.8948 22.42H56.8948C56.8948 22.8119 56.8281 23.1266 56.7173 23.3824L58.5524 24.1776ZM58.8948 22.42V14.58H56.8948V22.42H58.8948ZM57.8948 13.58H56.2548V15.58H57.8948V13.58ZM57.2548 14.58V13H55.2548V14.58H57.2548ZM56.2548 14H61.0948V12H56.2548V14ZM60.0948 13V14.58H62.0948V13H60.0948ZM61.0948 13.58H59.5548V15.58H61.0948V13.58ZM58.5548 14.58V22.48H60.5548V14.58H58.5548ZM58.5548 22.48C58.5548 23.1226 58.4424 23.6507 58.2445 24.0862L60.0652 24.9138C60.4006 24.176 60.5548 23.3574 60.5548 22.48H58.5548ZM58.2368 24.1036C58.0396 24.5602 57.7745 24.9189 57.4459 25.1992L58.7438 26.7208C59.3218 26.2278 59.7634 25.6132 60.0729 24.8964L58.2368 24.1036Z" fill="#432456" mask="url(#path-2-outside-1_26_15)"/>
<mask id="path-4-outside-2_26_15" maskUnits="userSpaceOnUse" x="9" y="11" width="17" height="18" fill="black">
<rect fill="white" x="9" y="11" width="17" height="18"/>
<path d="M22.5387 25.06C21.8853 25.7133 21.1187 26.2267 20.2387 26.6C19.372 26.9733 18.452 27.16 17.4787 27.16C16.492 27.16 15.5653 26.9733 14.6987 26.6C13.832 26.2267 13.0787 25.7133 12.4387 25.06C11.7853 24.42 11.272 23.6667 10.8987 22.8C10.5253 21.9333 10.3387 21.0067 10.3387 20.02C10.3387 19.0467 10.5253 18.1267 10.8987 17.26C11.272 16.38 11.7853 15.6133 12.4387 14.96C13.0787 14.3067 13.832 13.7933 14.6987 13.42C15.5653 13.0333 16.492 12.84 17.4787 12.84C18.452 12.84 19.372 13.0333 20.2387 13.42C21.1187 13.7933 21.8853 14.3067 22.5387 14.96C23.192 15.6133 23.7053 16.38 24.0787 17.26C24.4653 18.1267 24.6587 19.0467 24.6587 20.02C24.6587 21.0067 24.4653 21.9333 24.0787 22.8C23.7053 23.6667 23.192 24.42 22.5387 25.06ZM13.6187 23.94C14.112 24.4467 14.692 24.8467 15.3587 25.14C16.0253 25.4333 16.7387 25.58 17.4987 25.58C18.2587 25.58 18.972 25.4333 19.6387 25.14C20.3053 24.8467 20.892 24.4467 21.3987 23.94C21.892 23.4467 22.2787 22.8667 22.5587 22.2C22.852 21.52 22.9987 20.7933 22.9987 20.02C22.9987 19.2467 22.852 18.5267 22.5587 17.86C22.2787 17.18 21.892 16.5867 21.3987 16.08C20.892 15.5733 20.3053 15.1733 19.6387 14.88C18.972 14.5867 18.2587 14.44 17.4987 14.44C16.7387 14.44 16.0253 14.5867 15.3587 14.88C14.692 15.1733 14.112 15.5733 13.6187 16.08C13.112 16.5867 12.712 17.18 12.4187 17.86C12.1387 18.5267 11.9987 19.2467 11.9987 20.02C11.9987 20.7933 12.1387 21.52 12.4187 22.2C12.712 22.8667 13.112 23.4467 13.6187 23.94Z"/>
</mask>
<path d="M22.5387 25.06C21.8853 25.7133 21.1187 26.2267 20.2387 26.6C19.372 26.9733 18.452 27.16 17.4787 27.16C16.492 27.16 15.5653 26.9733 14.6987 26.6C13.832 26.2267 13.0787 25.7133 12.4387 25.06C11.7853 24.42 11.272 23.6667 10.8987 22.8C10.5253 21.9333 10.3387 21.0067 10.3387 20.02C10.3387 19.0467 10.5253 18.1267 10.8987 17.26C11.272 16.38 11.7853 15.6133 12.4387 14.96C13.0787 14.3067 13.832 13.7933 14.6987 13.42C15.5653 13.0333 16.492 12.84 17.4787 12.84C18.452 12.84 19.372 13.0333 20.2387 13.42C21.1187 13.7933 21.8853 14.3067 22.5387 14.96C23.192 15.6133 23.7053 16.38 24.0787 17.26C24.4653 18.1267 24.6587 19.0467 24.6587 20.02C24.6587 21.0067 24.4653 21.9333 24.0787 22.8C23.7053 23.6667 23.192 24.42 22.5387 25.06ZM13.6187 23.94C14.112 24.4467 14.692 24.8467 15.3587 25.14C16.0253 25.4333 16.7387 25.58 17.4987 25.58C18.2587 25.58 18.972 25.4333 19.6387 25.14C20.3053 24.8467 20.892 24.4467 21.3987 23.94C21.892 23.4467 22.2787 22.8667 22.5587 22.2C22.852 21.52 22.9987 20.7933 22.9987 20.02C22.9987 19.2467 22.852 18.5267 22.5587 17.86C22.2787 17.18 21.892 16.5867 21.3987 16.08C20.892 15.5733 20.3053 15.1733 19.6387 14.88C18.972 14.5867 18.2587 14.44 17.4987 14.44C16.7387 14.44 16.0253 14.5867 15.3587 14.88C14.692 15.1733 14.112 15.5733 13.6187 16.08C13.112 16.5867 12.712 17.18 12.4187 17.86C12.1387 18.5267 11.9987 19.2467 11.9987 20.02C11.9987 20.7933 12.1387 21.52 12.4187 22.2C12.712 22.8667 13.112 23.4467 13.6187 23.94Z" fill="#432456"/>
<path d="M22.5387 25.06L21.8389 24.3456L21.8316 24.3529L22.5387 25.06ZM20.2387 26.6L19.8481 25.6794L19.843 25.6816L20.2387 26.6ZM14.6987 26.6L15.0943 25.6816L15.0943 25.6816L14.6987 26.6ZM12.4387 25.06L13.153 24.3602L13.1458 24.3529L13.1385 24.3456L12.4387 25.06ZM10.8987 22.8L9.98026 23.1956L9.98026 23.1956L10.8987 22.8ZM10.8987 17.26L11.8171 17.6556L11.8193 17.6505L10.8987 17.26ZM12.4387 14.96L13.1458 15.6671L13.153 15.6598L12.4387 14.96ZM14.6987 13.42L15.0943 14.3385L15.1061 14.3332L14.6987 13.42ZM20.2387 13.42L19.8312 14.3332L19.8396 14.337L19.8481 14.3406L20.2387 13.42ZM22.5387 14.96L23.2458 14.2529L23.2458 14.2529L22.5387 14.96ZM24.0787 17.26L23.1581 17.6506L23.1617 17.659L23.1654 17.6674L24.0787 17.26ZM24.0787 22.8L23.1654 22.3925L23.1603 22.4044L24.0787 22.8ZM13.6187 23.94L14.3351 23.2424L14.3258 23.2328L14.3163 23.2235L13.6187 23.94ZM15.3587 25.14L14.9559 26.0553L14.9559 26.0553L15.3587 25.14ZM19.6387 25.14L19.2359 24.2247L19.2359 24.2247L19.6387 25.14ZM21.3987 23.94L20.6916 23.2329L20.6916 23.2329L21.3987 23.94ZM22.5587 22.2L21.6404 21.8039L21.6367 21.8128L22.5587 22.2ZM22.5587 17.86L21.634 18.2407L21.6385 18.2518L21.6434 18.2627L22.5587 17.86ZM21.3987 16.08L22.1152 15.3823L22.1058 15.3729L21.3987 16.08ZM19.6387 14.88L19.2359 15.7953L19.2359 15.7953L19.6387 14.88ZM15.3587 14.88L15.7614 15.7953L15.7614 15.7953L15.3587 14.88ZM13.6187 16.08L14.3258 16.7872L14.3351 16.7776L13.6187 16.08ZM12.4187 17.86L11.5004 17.4639L11.4967 17.4728L12.4187 17.86ZM12.4187 22.2L11.494 22.5807L11.4985 22.5918L11.5034 22.6027L12.4187 22.2ZM21.8316 24.3529C21.2722 24.9122 20.614 25.3545 19.8481 25.6794L20.6292 27.5206C21.6233 27.0989 22.4985 26.5144 23.2458 25.7671L21.8316 24.3529ZM19.843 25.6816C19.1053 25.9994 18.3203 26.16 17.4787 26.16V28.16C18.5837 28.16 19.6387 27.9473 20.6343 27.5184L19.843 25.6816ZM17.4787 26.16C16.6217 26.16 15.8303 25.9986 15.0943 25.6816L14.303 27.5184C15.3003 27.948 16.3623 28.16 17.4787 28.16V26.16ZM15.0943 25.6816C14.3432 25.358 13.6991 24.9177 13.153 24.3602L11.7243 25.7598C12.4582 26.509 13.3208 27.0953 14.303 27.5184L15.0943 25.6816ZM13.1385 24.3456C12.581 23.7996 12.1406 23.1555 11.8171 22.4044L9.98026 23.1956C10.4034 24.1779 10.9897 25.0404 11.7389 25.7744L13.1385 24.3456ZM11.8171 22.4044C11.5 21.6683 11.3387 20.8769 11.3387 20.02H9.33867C9.33867 21.1364 9.55065 22.1983 9.98026 23.1956L11.8171 22.4044ZM11.3387 20.02C11.3387 19.1783 11.4993 18.3934 11.8171 17.6556L9.98026 16.8644C9.55139 17.86 9.33867 18.915 9.33867 20.02H11.3387ZM11.8193 17.6505C12.1442 16.8846 12.5864 16.2265 13.1458 15.6671L11.7316 14.2529C10.9843 15.0002 10.3998 15.8754 9.97809 16.8694L11.8193 17.6505ZM13.153 15.6598C13.6991 15.1023 14.3432 14.662 15.0943 14.3384L14.303 12.5016C13.3208 12.9247 12.4582 13.511 11.7243 14.2602L13.153 15.6598ZM15.1061 14.3332C15.8395 14.006 16.6267 13.84 17.4787 13.84V11.84C16.3573 11.84 15.2912 12.0606 14.2912 12.5068L15.1061 14.3332ZM17.4787 13.84C18.3153 13.84 19.0961 14.0053 19.8312 14.3332L20.6461 12.5068C19.6479 12.0614 18.5887 11.84 17.4787 11.84V13.84ZM19.8481 14.3406C20.614 14.6655 21.2722 15.1078 21.8316 15.6671L23.2458 14.2529C22.4985 13.5056 21.6233 12.9211 20.6292 12.4994L19.8481 14.3406ZM21.8316 15.6671C22.3909 16.2265 22.8332 16.8846 23.1581 17.6506L24.9993 16.8694C24.5775 15.8754 23.9931 15.0002 23.2458 14.2529L21.8316 15.6671ZM23.1654 17.6674C23.4934 18.4026 23.6587 19.1834 23.6587 20.02H25.6587C25.6587 18.91 25.4373 17.8508 24.9919 16.8526L23.1654 17.6674ZM23.6587 20.02C23.6587 20.872 23.4926 21.6592 23.1654 22.3926L24.9919 23.2074C25.4381 22.2075 25.6587 21.1414 25.6587 20.02H23.6587ZM23.1603 22.4044C22.8367 23.1555 22.3963 23.7996 21.8389 24.3456L23.2385 25.7744C23.9877 25.0404 24.574 24.1779 24.9971 23.1956L23.1603 22.4044ZM12.9022 24.6376C13.4879 25.2391 14.1753 25.7118 14.9559 26.0553L15.7614 24.2247C15.2087 23.9815 14.7362 23.6542 14.3351 23.2424L12.9022 24.6376ZM14.9559 26.0553C15.755 26.4069 16.6062 26.58 17.4987 26.58V24.58C16.8712 24.58 16.2956 24.4597 15.7614 24.2247L14.9559 26.0553ZM17.4987 26.58C18.3912 26.58 19.2423 26.4069 20.0414 26.0553L19.2359 24.2247C18.7017 24.4597 18.1262 24.58 17.4987 24.58V26.58ZM20.0414 26.0553C20.8197 25.7129 21.51 25.2429 22.1058 24.6471L20.6916 23.2329C20.274 23.6504 19.791 23.9804 19.2359 24.2247L20.0414 26.0553ZM22.1058 24.6471C22.6941 24.0587 23.1523 23.369 23.4807 22.5872L21.6367 21.8128C21.405 22.3643 21.0899 22.8346 20.6916 23.2329L22.1058 24.6471ZM23.4769 22.5961C23.8266 21.7855 23.9987 20.9234 23.9987 20.02H21.9987C21.9987 20.6633 21.8775 21.2545 21.6405 21.8039L23.4769 22.5961ZM23.9987 20.02C23.9987 19.1167 23.8266 18.2586 23.474 17.4573L21.6434 18.2627C21.8774 18.7947 21.9987 19.3766 21.9987 20.02H23.9987ZM23.4834 17.4792C23.1568 16.6861 22.701 15.9841 22.1151 15.3824L20.6822 16.7776C21.083 17.1893 21.4006 17.6739 21.634 18.2407L23.4834 17.4792ZM22.1058 15.3729C21.51 14.7771 20.8197 14.3071 20.0414 13.9647L19.2359 15.7953C19.791 16.0396 20.274 16.3696 20.6916 16.7871L22.1058 15.3729ZM20.0414 13.9647C19.2423 13.6131 18.3912 13.44 17.4987 13.44V15.44C18.1262 15.44 18.7017 15.5603 19.2359 15.7953L20.0414 13.9647ZM17.4987 13.44C16.6062 13.44 15.755 13.6131 14.9559 13.9647L15.7614 15.7953C16.2956 15.5603 16.8712 15.44 17.4987 15.44V13.44ZM14.9559 13.9647C14.1753 14.3082 13.4879 14.7809 12.9022 15.3824L14.3351 16.7776C14.7362 16.3658 15.2087 16.0385 15.7614 15.7953L14.9559 13.9647ZM12.9116 15.3729C12.3125 15.972 11.8422 16.6718 11.5005 17.4639L13.3369 18.2561C13.5819 17.6882 13.9115 17.2014 14.3258 16.7871L12.9116 15.3729ZM11.4967 17.4728C11.1617 18.2704 10.9987 19.123 10.9987 20.02H12.9987C12.9987 19.3703 13.1157 18.783 13.3407 18.2472L11.4967 17.4728ZM10.9987 20.02C10.9987 20.9171 11.1617 21.7738 11.494 22.5807L13.3434 21.8192C13.1156 21.2662 12.9987 20.6696 12.9987 20.02H10.9987ZM11.5034 22.6027C11.8468 23.3834 12.3196 24.0708 12.9211 24.6565L14.3163 23.2235C13.9044 22.8225 13.5772 22.3499 13.334 21.7973L11.5034 22.6027Z" fill="#432456" mask="url(#path-4-outside-2_26_15)"/>
<mask id="path-6-outside-3_26_15" maskUnits="userSpaceOnUse" x="-1" y="14" width="11" height="13" fill="black">
<rect fill="white" x="-1" y="14" width="11" height="13"/>
<path d="M8.26354 24.412C7.89021 24.6267 7.48887 24.7993 7.05954 24.93C6.63954 25.0513 6.19154 25.112 5.71554 25.112C5.02487 25.112 4.37621 24.9813 3.76954 24.72C3.16287 24.4587 2.63554 24.0993 2.18754 23.642C1.73021 23.194 1.37087 22.6667 1.10954 22.06C0.848206 21.4533 0.717539 20.8047 0.717539 20.114C0.717539 19.4233 0.848206 18.7747 1.10954 18.168C1.37087 17.552 1.73021 17.0153 2.18754 16.558C2.63554 16.11 3.16287 15.7553 3.76954 15.494C4.37621 15.2233 5.02487 15.088 5.71554 15.088C6.19154 15.088 6.63954 15.1487 7.05954 15.27C7.48887 15.3913 7.89487 15.564 8.27754 15.788V17.356H7.17154V16.502C6.93821 16.3993 6.70021 16.3247 6.45754 16.278C6.21487 16.222 5.96754 16.194 5.71554 16.194C5.18354 16.194 4.68421 16.2967 4.21754 16.502C3.76021 16.7073 3.35887 16.9873 3.01354 17.342C2.65887 17.706 2.37887 18.126 2.17354 18.602C1.97754 19.078 1.87954 19.582 1.87954 20.114C1.87954 20.646 1.97754 21.15 2.17354 21.626C2.37887 22.102 2.65887 22.5127 3.01354 22.858C3.35887 23.2127 3.76021 23.4927 4.21754 23.698C4.68421 23.9033 5.18354 24.006 5.71554 24.006C6.06087 24.006 6.39221 23.964 6.70954 23.88C7.03621 23.7867 7.34421 23.656 7.63354 23.488L8.26354 24.412Z"/>
</mask>
<path d="M8.26354 24.412C7.89021 24.6267 7.48887 24.7993 7.05954 24.93C6.63954 25.0513 6.19154 25.112 5.71554 25.112C5.02487 25.112 4.37621 24.9813 3.76954 24.72C3.16287 24.4587 2.63554 24.0993 2.18754 23.642C1.73021 23.194 1.37087 22.6667 1.10954 22.06C0.848206 21.4533 0.717539 20.8047 0.717539 20.114C0.717539 19.4233 0.848206 18.7747 1.10954 18.168C1.37087 17.552 1.73021 17.0153 2.18754 16.558C2.63554 16.11 3.16287 15.7553 3.76954 15.494C4.37621 15.2233 5.02487 15.088 5.71554 15.088C6.19154 15.088 6.63954 15.1487 7.05954 15.27C7.48887 15.3913 7.89487 15.564 8.27754 15.788V17.356H7.17154V16.502C6.93821 16.3993 6.70021 16.3247 6.45754 16.278C6.21487 16.222 5.96754 16.194 5.71554 16.194C5.18354 16.194 4.68421 16.2967 4.21754 16.502C3.76021 16.7073 3.35887 16.9873 3.01354 17.342C2.65887 17.706 2.37887 18.126 2.17354 18.602C1.97754 19.078 1.87954 19.582 1.87954 20.114C1.87954 20.646 1.97754 21.15 2.17354 21.626C2.37887 22.102 2.65887 22.5127 3.01354 22.858C3.35887 23.2127 3.76021 23.4927 4.21754 23.698C4.68421 23.9033 5.18354 24.006 5.71554 24.006C6.06087 24.006 6.39221 23.964 6.70954 23.88C7.03621 23.7867 7.34421 23.656 7.63354 23.488L8.26354 24.412Z" fill="#432456"/>
<path d="M8.26354 24.412L8.76201 25.2789L9.69799 24.7407L9.08977 23.8487L8.26354 24.412ZM7.05954 24.93L7.33708 25.8907L7.3439 25.8887L7.3507 25.8867L7.05954 24.93ZM3.76954 24.72L4.16516 23.8016L4.16516 23.8016L3.76954 24.72ZM2.18754 23.642L2.9019 22.9422L2.89468 22.9349L2.88732 22.9276L2.18754 23.642ZM1.10954 22.06L0.191126 22.4556L0.191126 22.4556L1.10954 22.06ZM1.10954 18.168L2.02797 18.5636L2.03012 18.5585L1.10954 18.168ZM2.18754 16.558L1.48043 15.8509L1.48043 15.8509L2.18754 16.558ZM3.76954 15.494L4.1652 16.4125L4.17698 16.4072L3.76954 15.494ZM7.05954 15.27L6.782 16.2307L6.78758 16.2323L7.05954 15.27ZM8.27754 15.788H9.27754V15.2146L8.78272 14.925L8.27754 15.788ZM8.27754 17.356V18.356H9.27754V17.356H8.27754ZM7.17154 17.356H6.17154V18.356H7.17154V17.356ZM7.17154 16.502H8.17154V15.8495L7.57428 15.5867L7.17154 16.502ZM6.45754 16.278L6.23268 17.2524L6.25062 17.2565L6.26869 17.26L6.45754 16.278ZM4.21754 16.502L3.81479 15.5867L3.80795 15.5897L4.21754 16.502ZM3.01354 17.342L3.72977 18.0399L3.73001 18.0396L3.01354 17.342ZM2.17354 18.602L1.25533 18.2059L1.25203 18.2136L1.24886 18.2212L2.17354 18.602ZM2.17354 21.626L1.24886 22.0067L1.25203 22.0144L1.25533 22.0221L2.17354 21.626ZM3.01354 22.858L3.73001 22.1604L3.72071 22.1508L3.71116 22.1415L3.01354 22.858ZM4.21754 23.698L3.80794 24.6103L3.8148 24.6133L4.21754 23.698ZM6.70954 23.88L6.96543 24.8467L6.97487 24.8442L6.98426 24.8415L6.70954 23.88ZM7.63354 23.488L8.45977 22.9247L7.93578 22.1562L7.1314 22.6232L7.63354 23.488ZM7.76507 23.5451C7.45992 23.7206 7.12848 23.8637 6.76838 23.9733L7.3507 25.8867C7.84927 25.7349 8.32049 25.5328 8.76201 25.2789L7.76507 23.5451ZM6.782 23.9693C6.45983 24.0624 6.10592 24.112 5.71554 24.112V26.112C6.27716 26.112 6.81925 26.0403 7.33708 25.8907L6.782 23.9693ZM5.71554 24.112C5.1546 24.112 4.6412 24.0066 4.16516 23.8016L3.37392 25.6384C4.11121 25.956 4.89515 26.112 5.71554 26.112V24.112ZM4.16516 23.8016C3.67407 23.59 3.25597 23.3037 2.9019 22.9422L1.47318 24.3418C2.01511 24.895 2.65167 25.3273 3.37392 25.6384L4.16516 23.8016ZM2.88732 22.9276C2.52587 22.5736 2.2395 22.1555 2.02795 21.6644L0.191126 22.4556C0.502246 23.1779 0.934545 23.8144 1.48776 24.3564L2.88732 22.9276ZM2.02795 21.6644C1.82289 21.1883 1.71754 20.6749 1.71754 20.114H-0.282461C-0.282461 20.9344 -0.126479 21.7183 0.191126 22.4556L2.02795 21.6644ZM1.71754 20.114C1.71754 19.5531 1.82289 19.0397 2.02795 18.5636L0.191126 17.7724C-0.126479 18.5097 -0.282461 19.2936 -0.282461 20.114H1.71754ZM2.03012 18.5585C2.24306 18.0566 2.53129 17.6285 2.89465 17.2651L1.48043 15.8509C0.929121 16.4022 0.498688 17.0474 0.188957 17.7774L2.03012 18.5585ZM2.89465 17.2651C3.24933 16.9104 3.66973 16.6258 4.16516 16.4124L3.37392 14.5756C2.65602 14.8848 2.02175 15.3096 1.48043 15.8509L2.89465 17.2651ZM4.17698 16.4072C4.65032 16.196 5.15957 16.088 5.71554 16.088V14.088C4.89018 14.088 4.10209 14.2506 3.3621 14.5808L4.17698 16.4072ZM5.71554 16.088C6.10592 16.088 6.45983 16.1376 6.782 16.2307L7.33708 14.3093C6.81925 14.1597 6.27716 14.088 5.71554 14.088V16.088ZM6.78758 16.2323C7.13579 16.3307 7.46336 16.4701 7.77236 16.651L8.78272 14.925C8.32638 14.6579 7.84196 14.452 7.3315 14.3077L6.78758 16.2323ZM7.27754 15.788V17.356H9.27754V15.788H7.27754ZM8.27754 16.356H7.17154V18.356H8.27754V16.356ZM8.17154 17.356V16.502H6.17154V17.356H8.17154ZM7.57428 15.5867C7.27454 15.4548 6.96492 15.3572 6.64639 15.296L6.26869 17.26C6.4355 17.2921 6.60187 17.3439 6.7688 17.4173L7.57428 15.5867ZM6.6824 15.3036C6.36511 15.2304 6.04232 15.194 5.71554 15.194V17.194C5.89276 17.194 6.06463 17.2136 6.23268 17.2524L6.6824 15.3036ZM5.71554 15.194C5.05103 15.194 4.41391 15.3231 3.8148 15.5867L4.62028 17.4173C4.9545 17.2703 5.31605 17.194 5.71554 17.194V15.194ZM3.80795 15.5897C3.23721 15.846 2.7314 16.1983 2.29707 16.6444L3.73001 18.0396C3.98634 17.7764 4.2832 17.5687 4.62713 17.4143L3.80795 15.5897ZM2.29731 16.6441C1.85574 17.0973 1.50802 17.6201 1.25533 18.2059L3.09175 18.9981C3.24973 18.6319 3.46201 18.3147 3.72977 18.0399L2.29731 16.6441ZM1.24886 18.2212C1.00146 18.8221 0.879539 19.4558 0.879539 20.114H2.87954C2.87954 19.7082 2.95362 19.3339 3.09822 18.9827L1.24886 18.2212ZM0.879539 20.114C0.879539 20.7722 1.00146 21.4059 1.24886 22.0067L3.09822 21.2453C2.95362 20.8941 2.87954 20.5198 2.87954 20.114H0.879539ZM1.25533 22.0221C1.51002 22.6125 1.86306 23.1335 2.31592 23.5745L3.71116 22.1415C3.45469 21.8918 3.24772 21.5915 3.09175 21.2299L1.25533 22.0221ZM2.29707 23.5556C2.7314 24.0017 3.23721 24.354 3.80795 24.6103L4.62713 22.7857C4.2832 22.6313 3.98634 22.4236 3.73001 22.1604L2.29707 23.5556ZM3.8148 24.6133C4.41391 24.8769 5.05103 25.006 5.71554 25.006V23.006C5.31605 23.006 4.9545 22.9297 4.62028 22.7827L3.8148 24.6133ZM5.71554 25.006C6.14276 25.006 6.56037 24.9539 6.96543 24.8467L6.45365 22.9133C6.22405 22.9741 5.97898 23.006 5.71554 23.006V25.006ZM6.98426 24.8415C7.3892 24.7258 7.77372 24.563 8.13567 24.3528L7.1314 22.6232C6.91469 22.749 6.68321 22.8475 6.43482 22.9185L6.98426 24.8415ZM6.80731 24.0513L7.43731 24.9753L9.08977 23.8487L8.45977 22.9247L6.80731 24.0513Z" fill="#432456" mask="url(#path-6-outside-3_26_15)"/>
<mask id="path-8-outside-4_26_15" maskUnits="userSpaceOnUse" x="62" y="14" width="9" height="13" fill="black">
<rect fill="white" x="62" y="14" width="9" height="13"/>
<path d="M68.7292 24.384C68.4586 24.6173 68.1459 24.7993 67.7912 24.93C67.4366 25.0513 67.0632 25.112 66.6712 25.112C66.3166 25.112 65.9712 25.0747 65.6352 25C65.2992 24.916 64.9912 24.8087 64.7112 24.678C64.4312 24.5473 64.1792 24.398 63.9552 24.23C63.7406 24.062 63.5726 23.8847 63.4512 23.698V22.074H64.5572V23.32C64.7999 23.5067 65.0892 23.67 65.4252 23.81C65.7612 23.9407 66.1392 24.006 66.5592 24.006C66.8019 24.006 67.0352 23.9733 67.2592 23.908C67.4832 23.8333 67.6839 23.7307 67.8612 23.6C68.0292 23.46 68.1646 23.2873 68.2672 23.082C68.3699 22.8767 68.4212 22.6387 68.4212 22.368C68.4212 22.2 68.4072 22.032 68.3792 21.864C68.3606 21.696 68.3139 21.5513 68.2392 21.43C68.1179 21.234 67.9732 21.08 67.8052 20.968C67.6466 20.8467 67.4599 20.7347 67.2452 20.632C66.9092 20.492 66.5452 20.3707 66.1532 20.268C65.7612 20.1653 65.3972 20.0253 65.0612 19.848C64.7159 19.6707 64.4266 19.4233 64.1932 19.106C63.9692 18.7887 63.8526 18.3407 63.8432 17.762C63.8339 17.454 63.8759 17.146 63.9692 16.838C64.0626 16.53 64.2166 16.25 64.4312 15.998C64.6459 15.746 64.9306 15.5407 65.2852 15.382C65.6399 15.2233 66.0739 15.144 66.5872 15.144C66.7552 15.144 66.9372 15.1533 67.1332 15.172C67.3292 15.1907 67.5346 15.228 67.7492 15.284C67.9639 15.34 68.1832 15.424 68.4072 15.536C68.6406 15.648 68.8692 15.7973 69.0932 15.984V17.356H67.9872V16.53C67.8099 16.4553 67.6046 16.39 67.3712 16.334C67.1379 16.278 66.8812 16.25 66.6012 16.25C66.3212 16.25 66.0786 16.2967 65.8732 16.39C65.6679 16.474 65.4999 16.5907 65.3692 16.74C65.2479 16.88 65.1546 17.0433 65.0892 17.23C65.0332 17.4073 65.0052 17.5987 65.0052 17.804C65.0052 18.084 65.0706 18.3127 65.2012 18.49C65.3319 18.658 65.5046 18.8027 65.7192 18.924C66.0552 19.1013 66.4566 19.26 66.9232 19.4C67.3899 19.5307 67.8379 19.6987 68.2672 19.904C68.6592 20.0907 68.9766 20.38 69.2192 20.772C69.4619 21.164 69.5832 21.7007 69.5832 22.382C69.5832 22.802 69.5039 23.18 69.3452 23.516C69.1959 23.852 68.9906 24.1413 68.7292 24.384Z"/>
</mask>
<path d="M68.7292 24.384C68.4586 24.6173 68.1459 24.7993 67.7912 24.93C67.4366 25.0513 67.0632 25.112 66.6712 25.112C66.3166 25.112 65.9712 25.0747 65.6352 25C65.2992 24.916 64.9912 24.8087 64.7112 24.678C64.4312 24.5473 64.1792 24.398 63.9552 24.23C63.7406 24.062 63.5726 23.8847 63.4512 23.698V22.074H64.5572V23.32C64.7999 23.5067 65.0892 23.67 65.4252 23.81C65.7612 23.9407 66.1392 24.006 66.5592 24.006C66.8019 24.006 67.0352 23.9733 67.2592 23.908C67.4832 23.8333 67.6839 23.7307 67.8612 23.6C68.0292 23.46 68.1646 23.2873 68.2672 23.082C68.3699 22.8767 68.4212 22.6387 68.4212 22.368C68.4212 22.2 68.4072 22.032 68.3792 21.864C68.3606 21.696 68.3139 21.5513 68.2392 21.43C68.1179 21.234 67.9732 21.08 67.8052 20.968C67.6466 20.8467 67.4599 20.7347 67.2452 20.632C66.9092 20.492 66.5452 20.3707 66.1532 20.268C65.7612 20.1653 65.3972 20.0253 65.0612 19.848C64.7159 19.6707 64.4266 19.4233 64.1932 19.106C63.9692 18.7887 63.8526 18.3407 63.8432 17.762C63.8339 17.454 63.8759 17.146 63.9692 16.838C64.0626 16.53 64.2166 16.25 64.4312 15.998C64.6459 15.746 64.9306 15.5407 65.2852 15.382C65.6399 15.2233 66.0739 15.144 66.5872 15.144C66.7552 15.144 66.9372 15.1533 67.1332 15.172C67.3292 15.1907 67.5346 15.228 67.7492 15.284C67.9639 15.34 68.1832 15.424 68.4072 15.536C68.6406 15.648 68.8692 15.7973 69.0932 15.984V17.356H67.9872V16.53C67.8099 16.4553 67.6046 16.39 67.3712 16.334C67.1379 16.278 66.8812 16.25 66.6012 16.25C66.3212 16.25 66.0786 16.2967 65.8732 16.39C65.6679 16.474 65.4999 16.5907 65.3692 16.74C65.2479 16.88 65.1546 17.0433 65.0892 17.23C65.0332 17.4073 65.0052 17.5987 65.0052 17.804C65.0052 18.084 65.0706 18.3127 65.2012 18.49C65.3319 18.658 65.5046 18.8027 65.7192 18.924C66.0552 19.1013 66.4566 19.26 66.9232 19.4C67.3899 19.5307 67.8379 19.6987 68.2672 19.904C68.6592 20.0907 68.9766 20.38 69.2192 20.772C69.4619 21.164 69.5832 21.7007 69.5832 22.382C69.5832 22.802 69.5039 23.18 69.3452 23.516C69.1959 23.852 68.9906 24.1413 68.7292 24.384Z" fill="#432456"/>
<path d="M68.7292 24.384L69.3822 25.1414L69.3961 25.1294L69.4097 25.1168L68.7292 24.384ZM67.7912 24.93L68.1149 25.8762L68.126 25.8724L68.1369 25.8683L67.7912 24.93ZM65.6352 25L65.3927 25.9701L65.4055 25.9733L65.4183 25.9762L65.6352 25ZM64.7112 24.678L65.1341 23.7718L65.1341 23.7718L64.7112 24.678ZM63.9552 24.23L63.3389 25.0175L63.347 25.0238L63.3552 25.03L63.9552 24.23ZM63.4512 23.698H62.4512V23.9944L62.6128 24.243L63.4512 23.698ZM63.4512 22.074V21.074H62.4512V22.074H63.4512ZM64.5572 22.074H65.5572V21.074H64.5572V22.074ZM64.5572 23.32H63.5572V23.8124L63.9475 24.1126L64.5572 23.32ZM65.4252 23.81L65.0406 24.7331L65.0516 24.7377L65.0628 24.742L65.4252 23.81ZM67.2592 23.908L67.5392 24.868L67.5574 24.8627L67.5755 24.8567L67.2592 23.908ZM67.8612 23.6L68.4544 24.4051L68.4785 24.3873L68.5014 24.3682L67.8612 23.6ZM68.2672 23.082L67.3728 22.6348L67.3728 22.6348L68.2672 23.082ZM68.3792 21.864L67.3853 21.9744L67.3884 22.0015L67.3928 22.0284L68.3792 21.864ZM68.2392 21.43L69.0909 20.9059L69.0895 20.9036L68.2392 21.43ZM67.8052 20.968L67.1978 21.7624L67.2235 21.7821L67.2505 21.8001L67.8052 20.968ZM67.2452 20.632L67.6767 19.7299L67.6535 19.7188L67.6298 19.7089L67.2452 20.632ZM66.1532 20.268L66.4066 19.3006L66.4066 19.3006L66.1532 20.268ZM65.0612 19.848L65.528 18.9636L65.518 18.9584L65.0612 19.848ZM64.1932 19.106L63.3763 19.6827L63.3818 19.6906L63.3876 19.6984L64.1932 19.106ZM63.8432 17.762L64.8431 17.7459L64.843 17.7388L64.8428 17.7317L63.8432 17.762ZM63.9692 16.838L64.9263 17.128L64.9263 17.128L63.9692 16.838ZM64.4312 15.998L65.1925 16.6465L65.1925 16.6465L64.4312 15.998ZM67.1332 15.172L67.0384 16.1675L67.0384 16.1675L67.1332 15.172ZM67.7492 15.284L67.4968 16.2516L67.4968 16.2516L67.7492 15.284ZM68.4072 15.536L67.96 16.4304L67.9672 16.434L67.9745 16.4375L68.4072 15.536ZM69.0932 15.984H70.0932V15.5156L69.7334 15.2158L69.0932 15.984ZM69.0932 17.356V18.356H70.0932V17.356H69.0932ZM67.9872 17.356H66.9872V18.356H67.9872V17.356ZM67.9872 16.53H68.9872V15.866L68.3753 15.6084L67.9872 16.53ZM67.3712 16.334L67.6046 15.3616L67.6046 15.3616L67.3712 16.334ZM65.8732 16.39L66.2519 17.3155L66.2696 17.3083L66.287 17.3004L65.8732 16.39ZM65.3692 16.74L64.6166 16.0815L64.6135 16.0851L65.3692 16.74ZM65.0892 17.23L64.1454 16.8997L64.1403 16.9142L64.1356 16.9289L65.0892 17.23ZM65.2012 18.49L64.3962 19.0832L64.4039 19.0937L64.4119 19.1039L65.2012 18.49ZM65.7192 18.924L65.2272 19.7946L65.2397 19.8017L65.2525 19.8084L65.7192 18.924ZM66.9232 19.4L66.6359 20.3578L66.6447 20.3605L66.6536 20.363L66.9232 19.4ZM68.2672 19.904L67.8358 20.8061L67.8373 20.8069L68.2672 19.904ZM69.2192 20.772L70.0695 20.2456L70.0695 20.2456L69.2192 20.772ZM69.3452 23.516L68.441 23.089L68.4361 23.0994L68.4314 23.1099L69.3452 23.516ZM68.0763 23.6266C67.9015 23.7773 67.6943 23.9 67.4455 23.9917L68.1369 25.8683C68.5975 25.6987 69.0156 25.4574 69.3822 25.1414L68.0763 23.6266ZM67.4675 23.9838C67.2218 24.0679 66.9582 24.112 66.6712 24.112V26.112C67.1683 26.112 67.6513 26.0348 68.1149 25.8762L67.4675 23.9838ZM66.6712 24.112C66.3873 24.112 66.1148 24.0822 65.8522 24.0238L65.4183 25.9762C65.8277 26.0672 66.2458 26.112 66.6712 26.112V24.112ZM65.8778 24.0299C65.5965 23.9595 65.3497 23.8724 65.1341 23.7718L64.2883 25.5842C64.6327 25.7449 65.002 25.8725 65.3927 25.9701L65.8778 24.0299ZM65.1341 23.7718C64.9103 23.6674 64.7187 23.5526 64.5552 23.43L63.3552 25.03C63.6398 25.2434 63.9522 25.4273 64.2883 25.5842L65.1341 23.7718ZM64.5715 23.4425C64.425 23.3278 64.3391 23.229 64.2897 23.153L62.6128 24.243C62.806 24.5403 63.0561 24.7962 63.3389 25.0175L64.5715 23.4425ZM64.4512 23.698V22.074H62.4512V23.698H64.4512ZM63.4512 23.074H64.5572V21.074H63.4512V23.074ZM63.5572 22.074V23.32H65.5572V22.074H63.5572ZM63.9475 24.1126C64.2708 24.3613 64.6389 24.5657 65.0406 24.7331L65.8098 22.8869C65.5396 22.7743 65.329 22.6521 65.1669 22.5274L63.9475 24.1126ZM65.0628 24.742C65.5317 24.9244 66.0354 25.006 66.5592 25.006V23.006C66.2431 23.006 65.9907 22.957 65.7877 22.878L65.0628 24.742ZM66.5592 25.006C66.8928 25.006 67.2207 24.9609 67.5392 24.868L66.9792 22.948C66.8498 22.9858 66.7109 23.006 66.5592 23.006V25.006ZM67.5755 24.8567C67.8916 24.7513 68.187 24.6021 68.4544 24.4051L67.268 22.7949C67.1808 22.8592 67.0749 22.9154 66.943 22.9593L67.5755 24.8567ZM68.5014 24.3682C68.7806 24.1355 69.0004 23.8517 69.1617 23.5292L67.3728 22.6348C67.3287 22.723 67.2778 22.7845 67.221 22.8318L68.5014 24.3682ZM69.1617 23.5292C69.3451 23.1622 69.4212 22.7663 69.4212 22.368H67.4212C67.4212 22.5111 67.3946 22.5911 67.3728 22.6348L69.1617 23.5292ZM69.4212 22.368C69.4212 22.1442 69.4026 21.9212 69.3656 21.6996L67.3928 22.0284C67.4119 22.1428 67.4212 22.2558 67.4212 22.368H69.4212ZM69.3731 21.7536C69.3412 21.4659 69.256 21.1742 69.0909 20.9059L67.3876 21.9541C67.3803 21.9423 67.3781 21.9352 67.3785 21.9365C67.3791 21.9382 67.3826 21.9499 67.3853 21.9744L69.3731 21.7536ZM69.0895 20.9036C68.9034 20.603 68.663 20.338 68.3599 20.1359L67.2505 21.8001C67.2834 21.822 67.3324 21.865 67.389 21.9564L69.0895 20.9036ZM68.4127 20.1736C68.19 20.0034 67.9421 19.8568 67.6767 19.7299L66.8138 21.5341C66.9776 21.6125 67.1031 21.69 67.1978 21.7624L68.4127 20.1736ZM67.6298 19.7089C67.2467 19.5493 66.8384 19.4137 66.4066 19.3006L65.8999 21.2354C66.2521 21.3276 66.5718 21.4347 66.8606 21.5551L67.6298 19.7089ZM66.4066 19.3006C66.0838 19.2161 65.7919 19.1029 65.528 18.9636L64.5945 20.7324C65.0025 20.9477 65.4387 21.1146 65.8999 21.2354L66.4066 19.3006ZM65.518 18.9584C65.3125 18.8529 65.1419 18.7081 64.9989 18.5136L63.3876 19.6984C63.7112 20.1386 64.1193 20.4884 64.6044 20.7376L65.518 18.9584ZM65.0102 18.5293C64.9461 18.4385 64.8507 18.2164 64.8431 17.7459L62.8434 17.7781C62.8544 18.4649 62.9924 19.1388 63.3763 19.6827L65.0102 18.5293ZM64.8428 17.7317C64.8369 17.5368 64.8629 17.3369 64.9263 17.128L63.0122 16.548C62.8888 16.9551 62.8309 17.3712 62.8437 17.7923L64.8428 17.7317ZM64.9263 17.128C64.9785 16.9555 65.0644 16.7968 65.1925 16.6465L63.67 15.3495C63.3687 15.7032 63.1466 16.1045 63.0122 16.548L64.9263 17.128ZM65.1925 16.6465C65.2953 16.5258 65.4513 16.4032 65.6936 16.2948L64.8769 14.4692C64.4098 14.6781 63.9965 14.9662 63.67 15.3495L65.1925 16.6465ZM65.6936 16.2948C65.8856 16.2089 66.1716 16.144 66.5872 16.144V14.144C65.9762 14.144 65.3942 14.2377 64.8769 14.4692L65.6936 16.2948ZM66.5872 16.144C66.7187 16.144 66.8687 16.1513 67.0384 16.1675L67.228 14.1765C67.0057 14.1553 66.7917 14.144 66.5872 14.144V16.144ZM67.0384 16.1675C67.175 16.1805 67.3275 16.2074 67.4968 16.2516L68.0017 14.3164C67.7417 14.2486 67.4834 14.2008 67.228 14.1765L67.0384 16.1675ZM67.4968 16.2516C67.6362 16.288 67.7904 16.3456 67.96 16.4304L68.8544 14.6416C68.5761 14.5024 68.2916 14.392 68.0016 14.3164L67.4968 16.2516ZM67.9745 16.4375C68.1248 16.5096 68.2846 16.6118 68.453 16.7522L69.7334 15.2158C69.4539 14.9828 69.1564 14.7864 68.84 14.6345L67.9745 16.4375ZM68.0932 15.984V17.356H70.0932V15.984H68.0932ZM69.0932 16.356H67.9872V18.356H69.0932V16.356ZM68.9872 17.356V16.53H66.9872V17.356H68.9872ZM68.3753 15.6084C68.1374 15.5082 67.8785 15.4273 67.6046 15.3616L67.1379 17.3064C67.3307 17.3527 67.4824 17.4025 67.5992 17.4516L68.3753 15.6084ZM67.6046 15.3616C67.2834 15.2845 66.9471 15.25 66.6012 15.25V17.25C66.8153 17.25 66.9924 17.2715 67.1379 17.3064L67.6046 15.3616ZM66.6012 15.25C66.212 15.25 65.8221 15.3148 65.4594 15.4796L66.287 17.3004C66.335 17.2786 66.4304 17.25 66.6012 17.25V15.25ZM65.4946 15.4645C65.1627 15.6002 64.8611 15.8021 64.6167 16.0815L66.1218 17.3985C66.1387 17.3792 66.1731 17.3478 66.2519 17.3155L65.4946 15.4645ZM64.6135 16.0851C64.4041 16.3267 64.2495 16.602 64.1454 16.8997L66.0331 17.5603C66.0596 17.4847 66.0917 17.4333 66.1249 17.3949L64.6135 16.0851ZM64.1356 16.9289C64.0459 17.2132 64.0052 17.5071 64.0052 17.804H66.0052C66.0052 17.6903 66.0206 17.6015 66.0428 17.5311L64.1356 16.9289ZM64.0052 17.804C64.0052 18.2392 64.1082 18.6924 64.3962 19.0832L66.0063 17.8968C66.0171 17.9115 66.0183 17.9196 66.0158 17.9108C66.0127 17.9 66.0052 17.8671 66.0052 17.804H64.0052ZM64.4119 19.1039C64.6355 19.3915 64.9155 19.6184 65.2272 19.7946L66.2113 18.0534C66.0936 17.9869 66.0283 17.9245 65.9906 17.8761L64.4119 19.1039ZM65.2525 19.8084C65.6591 20.023 66.1236 20.2041 66.6359 20.3578L67.2106 18.4422C66.7895 18.3159 66.4513 18.1796 66.186 18.0396L65.2525 19.8084ZM66.6536 20.363C67.0657 20.4783 67.4595 20.6262 67.8358 20.8061L68.6987 19.0019C68.2163 18.7712 67.7141 18.583 67.1929 18.437L66.6536 20.363ZM67.8373 20.8069C68.045 20.9058 68.2208 21.059 68.369 21.2984L70.0695 20.2456C69.7323 19.701 69.2734 19.2755 68.6972 19.0011L67.8373 20.8069ZM68.369 21.2984C68.4776 21.4739 68.5832 21.8034 68.5832 22.382H70.5832C70.5832 21.598 70.4462 20.8541 70.0695 20.2456L68.369 21.2984ZM68.5832 22.382C68.5832 22.6737 68.5288 22.9029 68.441 23.089L70.2495 23.943C70.479 23.4571 70.5832 22.9303 70.5832 22.382H68.5832ZM68.4314 23.1099C68.3352 23.3262 68.2079 23.5034 68.0488 23.6512L69.4097 25.1168C69.7732 24.7793 70.0565 24.3778 70.259 23.9221L68.4314 23.1099Z" fill="#432456" mask="url(#path-8-outside-4_26_15)"/>
<path d="M49 35C49 38.866 43.1797 42 36 42C28.8203 42 23 38.866 23 35C23 31.134 28.8203 28 36 28C43.1797 28 49 31.134 49 35Z" fill="#F7F3F6"/>
</svg>
