<svg id="Livello_1" data-name="Livello 1" xmlns="http://www.w3.org/2000/svg" viewBox="0 0 166.13 70.22"><defs><style>.cls-1{fill:#ee7c2f;}.cls-2{fill:#f7f3f6;}</style></defs><title>big-orange-white</title><path class="cls-1" d="M83.63,87a38,38,0,0,1,6-2.64c-6.07-5.3-23-22.69-13.86-44.43,1.23-2.9,3.7-7.66,6.55-6.91a7.3,7.3,0,0,1,3.32,2.32,56.6,56.6,0,0,0-.49,25.45c1.85,8.25,3.66,13.06,7.36,13.06h.24c3.53-.19,5.2-4.06,6.39-14.79.76-6.84-2-17.71-6.86-24.88a24.16,24.16,0,0,1,3.7-7c2.34-2.91,5.16-4.39,8.39-4.39a10.54,10.54,0,0,1,8.4,4.39,24.16,24.16,0,0,1,3.7,7c-4.85,7.17-7.62,18-6.86,24.88,1.19,10.73,2.86,14.6,6.39,14.79h.24c3.7,0,5.51-4.81,7.36-13.06a56.6,56.6,0,0,0-.49-25.45,7.3,7.3,0,0,1,3.32-2.32c2.85-.75,5.32,4,6.55,6.91,9.28,22-7.68,39.15-13.83,44.44A37.61,37.61,0,0,1,125,87c8-7.73,23.17-26.34,13.43-49.4-4.39-10.37-9.81-11.37-13.6-10.39a11.37,11.37,0,0,0-4,2,27,27,0,0,0-3.5-5.8,16.19,16.19,0,0,0-26.15,0,27,27,0,0,0-3.5,5.8,11.33,11.33,0,0,0-4-2c-3.78-1-9.2,0-13.59,10.39C60.46,60.7,75.61,79.31,83.63,87Zm34.81-43.92a49.41,49.41,0,0,1-.74,16.4c-.47,2.12-.9,3.74-1.27,5-.29-1.46-.6-3.43-.9-6.07C115,54,116.34,48.12,118.44,43.12Zm-28.21,0c2.1,5,3.4,10.87,2.91,15.31-.3,2.64-.61,4.61-.9,6.07-.37-1.24-.8-2.86-1.27-5A49.41,49.41,0,0,1,90.23,43.12Z" transform="translate(-20.32 -16.83)"/><path class="cls-2" d="M177.17,72.44a13.28,13.28,0,0,1-4.91-.79,8.12,8.12,0,0,1-3.09-2.12l-.8,2.45h-4.29V63.61h5.83a4.51,4.51,0,0,0,1.81,3,6.07,6.07,0,0,0,3.83,1.17,3.23,3.23,0,0,0,1.95-.51,1.64,1.64,0,0,0,.69-1.4,1.66,1.66,0,0,0-.77-1.47,6.33,6.33,0,0,0-2-.78c-.84-.19-1.77-.37-2.78-.55a23.81,23.81,0,0,1-3-.73,9.61,9.61,0,0,1-2.78-1.37,6.48,6.48,0,0,1-2-2.47,9,9,0,0,1-.76-4,7.19,7.19,0,0,1,4.39-6.87,12,12,0,0,1,5.09-1,11.29,11.29,0,0,1,4.44.77,7.34,7.34,0,0,1,2.91,2.17l.79-2.45h4.3v8.06H180a4.85,4.85,0,0,0-1.81-2.86,5.09,5.09,0,0,0-3.13-1,3.73,3.73,0,0,0-2,.48,1.54,1.54,0,0,0-.75,1.4A1.44,1.44,0,0,0,173,54.5a7.19,7.19,0,0,0,2,.73c.85.19,1.77.38,2.78.58a24.27,24.27,0,0,1,3,.81,10.58,10.58,0,0,1,2.79,1.45,6.71,6.71,0,0,1,2,2.47,8.88,8.88,0,0,1,.76,3.93A7.29,7.29,0,0,1,184,70.31,10.07,10.07,0,0,1,177.17,72.44Z" transform="translate(-20.32 -16.83)"/><path class="cls-2" d="M34.14,72.44a15.65,15.65,0,0,1-7.34-1.63A11.46,11.46,0,0,1,22,66.17,14.51,14.51,0,0,1,20.32,59a14.61,14.61,0,0,1,.89-5.28,11.09,11.09,0,0,1,2.43-3.88,10.5,10.5,0,0,1,3.57-2.38,11.39,11.39,0,0,1,4.28-.81,10.26,10.26,0,0,1,4.11.75,7.15,7.15,0,0,1,2.86,2.19l.8-2.48h4.3V57.45H37.85c-.08-2-.47-3.38-1.18-4.14a3.57,3.57,0,0,0-2.75-1.14,4.19,4.19,0,0,0-2.34.7A4.92,4.92,0,0,0,29.83,55a9,9,0,0,0-.66,3.72,7,7,0,0,0,1.74,5.11,6.52,6.52,0,0,0,4.9,1.78A10.85,10.85,0,0,0,39.45,65a10.19,10.19,0,0,0,3.31-1.92l.42.19v6.59a12,12,0,0,1-4.27,1.95A19.65,19.65,0,0,1,34.14,72.44Z" transform="translate(-20.32 -16.83)"/><path class="cls-2" d="M61.94,75.3a17.73,17.73,0,0,1-8.74-2,13.91,13.91,0,0,1-5.68-5.84,19.21,19.21,0,0,1-2-9,19.34,19.34,0,0,1,2-9.05,14,14,0,0,1,5.68-5.86,17.62,17.62,0,0,1,8.74-2,17.67,17.67,0,0,1,8.76,2,14,14,0,0,1,5.66,5.86,19.22,19.22,0,0,1,2,9.05,19.09,19.09,0,0,1-2,9,13.92,13.92,0,0,1-5.66,5.84A17.78,17.78,0,0,1,61.94,75.3Zm0-7.08a3.84,3.84,0,0,0,3.53-2.5,17.24,17.24,0,0,0,1.23-7.36A17.24,17.24,0,0,0,65.47,51a3.74,3.74,0,0,0-7.06,0,17.24,17.24,0,0,0-1.23,7.36,17.24,17.24,0,0,0,1.23,7.36A3.84,3.84,0,0,0,61.94,68.22Z" transform="translate(-20.32 -16.83)"/><path class="cls-2" d="M147,75.3q-6.91,0-10.72-3.49t-3.8-11.15V49.13h-3.28V42.06H146.5v7.07h-3.38V60.68q0,6.48,5.37,6.48a4.48,4.48,0,0,0,3.83-1.68,7.92,7.92,0,0,0,1.26-4.8V49.13H150.2V42.06h13.51v7.07h-3.28V61.48Q160.43,75.3,147,75.3Z" transform="translate(-20.32 -16.83)"/></svg>