<svg xmlns="http://www.w3.org/2000/svg" viewBox="0 0 74.59 70.22"><defs><style>.cls-1{fill:#432456;}</style></defs><title>Risorsa 1</title><g id="Livello_2" data-name="Livello 2"><g id="Livello_1-2" data-name="Livello 1"><path class="cls-1" d="M16.59,70.22a37,37,0,0,1,5.95-2.65c-6.06-5.3-23-22.69-13.85-44.42,1.22-2.91,3.69-7.67,6.55-6.92a7.38,7.38,0,0,1,3.32,2.32A56.6,56.6,0,0,0,18.07,44c1.85,8.25,3.66,13.06,7.36,13.06h.24c3.52-.2,5.2-4.07,6.39-14.79.76-6.85-2-17.72-6.86-24.88a23.86,23.86,0,0,1,3.7-7,10.22,10.22,0,0,1,16.79,0,24.1,24.1,0,0,1,3.7,7c-4.86,7.16-7.62,18-6.86,24.88C43.72,53,45.39,56.86,48.91,57.06h.25c3.7,0,5.51-4.81,7.35-13.06A56.31,56.31,0,0,0,56,18.55a7.35,7.35,0,0,1,3.33-2.32c2.85-.75,5.32,4,6.55,6.92,9.27,22-7.68,39.14-13.83,44.43A37.14,37.14,0,0,1,58,70.22c8-7.74,23.17-26.35,13.42-49.41C67,10.44,61.62,9.44,57.83,10.43a11.17,11.17,0,0,0-4,2,27,27,0,0,0-3.5-5.8,16.19,16.19,0,0,0-26.15,0,27.06,27.06,0,0,0-3.51,5.8,11.28,11.28,0,0,0-4-2c-3.78-1-9.21,0-13.59,10.39C-6.58,43.87,8.57,62.48,16.59,70.22ZM51.4,26.29a49.68,49.68,0,0,1-.74,16.4c-.47,2.12-.9,3.74-1.27,5-.29-1.46-.6-3.43-.9-6.07C48,37.17,49.3,31.29,51.4,26.29Zm-28.22,0c2.11,5,3.41,10.87,2.91,15.3-.29,2.64-.6,4.61-.89,6.07-.37-1.24-.8-2.86-1.27-5A49.37,49.37,0,0,1,23.18,26.3Z"/></g></g></svg>