<svg xmlns="http://www.w3.org/2000/svg" viewBox="0 0 166.13 70.49"><defs><style>.cls-1{fill:#2a101a;stroke:#2a101a;stroke-miterlimit:10;}.cls-2{fill:#e1915c;}</style></defs><title>Risorsa 4</title><g id="Livello_2" data-name="Livello 2"><g id="Livello_1-2" data-name="Livello 1"><path class="cls-1" d="M65.53,69.58l.83-.38A2,2,0,0,0,67,65.93c-7.13-7-19.73-22.91-11.54-42.28C56.63,20.74,59.1,16,62,16.73a7.38,7.38,0,0,1,3.32,2.32,56.6,56.6,0,0,0-.49,25.45c1.85,8.25,3.65,13.06,7.36,13.06h.24c3.52-.2,5.19-4.07,6.39-14.79.76-6.85-2-17.72-6.86-24.88a23.86,23.86,0,0,1,3.7-7,10.22,10.22,0,0,1,16.79,0,23.85,23.85,0,0,1,3.69,7c-4.85,7.16-7.61,18-6.85,24.88,1.19,10.72,2.86,14.59,6.38,14.79h.24c3.71,0,5.52-4.81,7.36-13.06a56.46,56.46,0,0,0-.49-25.45,7.35,7.35,0,0,1,3.33-2.32c2.85-.75,5.32,4,6.55,6.92,8.16,19.33-4,35-11.22,42a2.28,2.28,0,0,0,.68,3.71l.6.28a3.26,3.26,0,0,0,3.75-.67c8.24-8.56,20.8-26.19,11.71-47.69-4.38-10.37-9.8-11.37-13.59-10.38a11.17,11.17,0,0,0-4,2,27.44,27.44,0,0,0-3.5-5.8,16.19,16.19,0,0,0-26.15,0,27.06,27.06,0,0,0-3.51,5.8,11.28,11.28,0,0,0-4-2c-3.78-1-9.21,0-13.59,10.39-9,21.38,3.33,38.93,11.57,47.54A3.53,3.53,0,0,0,65.53,69.58ZM98.12,26.79a49.68,49.68,0,0,1-.74,16.4c-.48,2.12-.9,3.74-1.28,5-.28-1.46-.6-3.43-.89-6.07C94.72,37.67,96,31.79,98.12,26.79Zm-28.22,0c2.11,5,3.41,10.87,2.91,15.3-.29,2.64-.6,4.61-.89,6.07-.37-1.24-.8-2.86-1.27-5A49.37,49.37,0,0,1,69.9,26.8Z"/><path class="cls-2" d="M156.85,55.61a13,13,0,0,1-4.91-.79,7.91,7.91,0,0,1-3.09-2.12l-.8,2.46h-4.3V46.78h5.83a4.57,4.57,0,0,0,1.82,3,6.05,6.05,0,0,0,3.82,1.16,3.32,3.32,0,0,0,2-.5,1.67,1.67,0,0,0,.68-1.4,1.63,1.63,0,0,0-.76-1.47,5.9,5.9,0,0,0-2-.78c-.85-.19-1.77-.37-2.78-.55a25.33,25.33,0,0,1-3-.73,10,10,0,0,1-2.78-1.38,6.44,6.44,0,0,1-2-2.46,9.07,9.07,0,0,1-.76-4,7.44,7.44,0,0,1,1.13-4.13,7.52,7.52,0,0,1,3.26-2.75,12.1,12.1,0,0,1,5.09-1,11.3,11.3,0,0,1,4.44.76,7.33,7.33,0,0,1,2.9,2.18l.8-2.46h4.3v8.06h-5.95a4.87,4.87,0,0,0-1.81-2.85,5.09,5.09,0,0,0-3.13-1,3.71,3.71,0,0,0-2,.47,1.56,1.56,0,0,0-.75,1.4,1.44,1.44,0,0,0,.77,1.31,6.88,6.88,0,0,0,2,.74c.84.18,1.77.38,2.78.58a21.24,21.24,0,0,1,3,.81,10.06,10.06,0,0,1,2.78,1.44,6.64,6.64,0,0,1,2,2.48,8.83,8.83,0,0,1,.77,3.92,7.31,7.31,0,0,1-2.47,5.85A10.15,10.15,0,0,1,156.85,55.61Z"/><path class="cls-2" d="M13.81,55.59A15.61,15.61,0,0,1,6.48,54a11.4,11.4,0,0,1-4.79-4.64A14.4,14.4,0,0,1,0,42.16a14.61,14.61,0,0,1,.88-5.28A11,11,0,0,1,3.32,33a10.36,10.36,0,0,1,3.57-2.38,11.35,11.35,0,0,1,4.28-.81,10.29,10.29,0,0,1,4.11.75,7.15,7.15,0,0,1,2.86,2.19l.8-2.48h4.29V40.61h-5.7c-.08-2-.48-3.38-1.18-4.14a3.58,3.58,0,0,0-2.76-1.14,4.19,4.19,0,0,0-2.33.7,4.86,4.86,0,0,0-1.75,2.16,8.87,8.87,0,0,0-.67,3.72A7,7,0,0,0,10.59,47a6.51,6.51,0,0,0,4.89,1.78,10.91,10.91,0,0,0,3.65-.63,10.29,10.29,0,0,0,3.31-1.92l.42.19V53A12,12,0,0,1,18.59,55,19.71,19.71,0,0,1,13.81,55.59Z"/><path class="cls-2" d="M41.62,59.62a17.8,17.8,0,0,1-8.75-2,13.92,13.92,0,0,1-5.67-5.83,19.21,19.21,0,0,1-2-9,19.41,19.41,0,0,1,2-9.06,13.91,13.91,0,0,1,5.67-5.85,17.69,17.69,0,0,1,8.75-2.05,17.67,17.67,0,0,1,8.76,2.05A14,14,0,0,1,56,33.69a19.41,19.41,0,0,1,2,9.06,19.21,19.21,0,0,1-2,9,14,14,0,0,1-5.66,5.83A17.78,17.78,0,0,1,41.62,59.62Zm0-7.07a3.85,3.85,0,0,0,3.53-2.5,17.29,17.29,0,0,0,1.23-7.37,17.24,17.24,0,0,0-1.23-7.36,3.74,3.74,0,0,0-7.06,0,17.24,17.24,0,0,0-1.23,7.36,17.29,17.29,0,0,0,1.23,7.37A3.85,3.85,0,0,0,41.62,52.55Z"/><path class="cls-2" d="M126.65,59.33c-4.6,0-8.18-1.17-10.71-3.49s-3.81-6-3.81-11.16V33.16h-3.28V26.08h17.33v7.08H122.8V44.7q0,6.48,5.37,6.48A4.48,4.48,0,0,0,132,49.5a7.88,7.88,0,0,0,1.26-4.8V33.16h-3.39V26.08h13.52v7.08h-3.28V45.5Q140.11,59.33,126.65,59.33Z"/></g></g></svg>