<svg id="Livello_1" data-name="Livello 1" xmlns="http://www.w3.org/2000/svg" viewBox="0 0 146.76 70.22"><defs><style>.cls-1{fill:#ee7c2f;}.cls-2,.cls-3{fill:#fff;stroke:#fff;stroke-miterlimit:10;}.cls-3{stroke-width:0.5px;}</style></defs><title>logo-orange-white</title><path class="cls-1" d="M83.63,87a38,38,0,0,1,6-2.64c-6.07-5.3-23-22.69-13.86-44.43,1.23-2.9,3.7-7.66,6.55-6.91a7.3,7.3,0,0,1,3.32,2.32,56.6,56.6,0,0,0-.49,25.45c1.85,8.25,3.66,13.06,7.36,13.06h.24c3.53-.19,5.2-4.06,6.39-14.79.76-6.84-2-17.71-6.86-24.88a24.16,24.16,0,0,1,3.7-7c2.34-2.91,5.16-4.39,8.39-4.39a10.54,10.54,0,0,1,8.4,4.39,24.16,24.16,0,0,1,3.7,7c-4.85,7.17-7.62,18-6.86,24.88,1.19,10.73,2.86,14.6,6.39,14.79h.24c3.7,0,5.51-4.81,7.36-13.06a56.6,56.6,0,0,0-.49-25.45,7.3,7.3,0,0,1,3.32-2.32c2.85-.75,5.32,4,6.55,6.91,9.28,22-7.68,39.15-13.83,44.44A37.61,37.61,0,0,1,125,87c8-7.73,23.17-26.34,13.43-49.4-4.39-10.37-9.81-11.37-13.6-10.39a11.37,11.37,0,0,0-4,2,27,27,0,0,0-3.5-5.8,16.19,16.19,0,0,0-26.15,0,27,27,0,0,0-3.5,5.8,11.33,11.33,0,0,0-4-2c-3.78-1-9.2,0-13.59,10.39C60.46,60.7,75.61,79.31,83.63,87Zm34.81-43.92a49.41,49.41,0,0,1-.74,16.4c-.47,2.12-.9,3.74-1.27,5-.29-1.46-.6-3.43-.9-6.07C115,54,116.34,48.12,118.44,43.12Zm-28.21,0c2.1,5,3.4,10.87,2.91,15.31-.3,2.64-.61,4.61-.9,6.07-.37-1.24-.8-2.86-1.27-5A49.41,49.41,0,0,1,90.23,43.12Z" transform="translate(-28 -16.83)"/><path class="cls-2" d="M44.82,65.28a12.87,12.87,0,0,1-8.48-.53A12.46,12.46,0,0,1,32.28,62a12.69,12.69,0,0,1-2.78-4.07,12.51,12.51,0,0,1-1-5,12.64,12.64,0,0,1,1-5A13.07,13.07,0,0,1,36.34,41a12.4,12.4,0,0,1,5-1,12.65,12.65,0,0,1,3.47.46,13.86,13.86,0,0,1,3.12,1.34v4H45.09v-2.2A9.51,9.51,0,0,0,43.26,43a9.56,9.56,0,0,0-5.75.59,10.1,10.1,0,0,0-3.11,2.16A10.39,10.39,0,0,0,32.26,49a10.09,10.09,0,0,0,0,7.78A9.54,9.54,0,0,0,34.4,60a10.1,10.1,0,0,0,3.11,2.16,9.49,9.49,0,0,0,3.84.79,9.72,9.72,0,0,0,4.93-1.33L47.9,64A14.82,14.82,0,0,1,44.82,65.28Z" transform="translate(-28 -16.83)"/><path class="cls-3" d="M68.29,64.75A12.7,12.7,0,0,1,54.24,62a12.83,12.83,0,0,1-2.78-14.06A13.27,13.27,0,0,1,58.3,41a12.74,12.74,0,0,1,10,0,13.14,13.14,0,0,1,6.92,6.91,12.48,12.48,0,0,1,1,5,12.35,12.35,0,0,1-1,5,13.15,13.15,0,0,1-6.92,6.84Zm-8.8-2.62a9.8,9.8,0,0,0,7.71,0A10.32,10.32,0,0,0,70.36,60a10,10,0,0,0,2.11-3.15,10.31,10.31,0,0,0,0-7.82,10,10,0,0,0-5.27-5.34,9.8,9.8,0,0,0-7.71,0,10.12,10.12,0,0,0-5.27,13.16A9.56,9.56,0,0,0,56.36,60,10,10,0,0,0,59.49,62.13Z" transform="translate(-28 -16.83)"/><path class="cls-2" d="M148.19,65.22a12.27,12.27,0,0,1-7.2,0,8.15,8.15,0,0,1-2.88-1.62,7,7,0,0,1-1.9-2.63,9,9,0,0,1-.69-3.63V43.12h-2.77V40.27h8.71v2.85h-3V57.23a6.19,6.19,0,0,0,.45,2.43,4.81,4.81,0,0,0,1.28,1.78,5.29,5.29,0,0,0,1.91,1.1,8.06,8.06,0,0,0,4.89,0,5.74,5.74,0,0,0,2-1.1,5.41,5.41,0,0,0,1.26-1.78,6,6,0,0,0,.46-2.43V43.12h-3V40.27h8.71v2.85H153.7V57.34A8.81,8.81,0,0,1,153,61a7.17,7.17,0,0,1-1.93,2.63A8,8,0,0,1,148.19,65.22Z" transform="translate(-28 -16.83)"/><path class="cls-2" d="M169.65,65.28a8.62,8.62,0,0,1-2.88.48,11.73,11.73,0,0,1-2.66-.3,13,13,0,0,1-2.38-.81,10.39,10.39,0,0,1-1.93-1.16,5.56,5.56,0,0,1-1.31-1.36V58h2.84v3.2a9.54,9.54,0,0,0,2.24,1.25,7.86,7.86,0,0,0,2.91.52,5.94,5.94,0,0,0,1.8-.27,5.13,5.13,0,0,0,1.55-.78,4,4,0,0,0,1-1.33,4,4,0,0,0,.4-1.83,9.36,9.36,0,0,0-.09-1.3,3,3,0,0,0-.38-1.12,4.12,4.12,0,0,0-1.1-1.2,10.28,10.28,0,0,0-1.45-.85,21,21,0,0,0-2.81-.93,13.65,13.65,0,0,1-2.81-1.08,6.17,6.17,0,0,1-2.21-1.91,6,6,0,0,1-.92-3.46,7.17,7.17,0,0,1,.32-2.37A5.88,5.88,0,0,1,161,42.33a6,6,0,0,1,2.2-1.59,8.1,8.1,0,0,1,3.34-.61c.44,0,.9,0,1.41.07a10.83,10.83,0,0,1,1.58.29,9,9,0,0,1,3.46,1.8v3.53h-2.85V43.69a9.84,9.84,0,0,0-1.58-.5,8.7,8.7,0,0,0-2-.22,4.66,4.66,0,0,0-1.87.35,3.54,3.54,0,0,0-1.3.91,3.74,3.74,0,0,0-.7,1.25,4.52,4.52,0,0,0-.23,1.49,2.82,2.82,0,0,0,.5,1.75,4.36,4.36,0,0,0,1.33,1.13,16.58,16.58,0,0,0,3.1,1.21,21.34,21.34,0,0,1,3.45,1.31,5.71,5.71,0,0,1,2.45,2.23,7.79,7.79,0,0,1,.94,4.14,6.87,6.87,0,0,1-2.2,5.15A7.57,7.57,0,0,1,169.65,65.28Z" transform="translate(-28 -16.83)"/></svg>