<svg xmlns="http://www.w3.org/2000/svg" viewBox="0 0 75.59 70.49"><defs><style>.cls-1{fill:#f7f3f6;stroke:#f7f3f6;stroke-miterlimit:10;}</style></defs><title>Risorsa 6</title><g id="Livello_2" data-name="Livello 2"><g id="Livello_1-2" data-name="Livello 1"><path class="cls-1" d="M19.31,69.58l.83-.38a2,2,0,0,0,.59-3.27C13.6,58.94,1,43,9.19,23.65c1.22-2.91,3.69-7.67,6.55-6.92a7.38,7.38,0,0,1,3.32,2.32,56.6,56.6,0,0,0-.49,25.45c1.85,8.25,3.66,13.06,7.36,13.06h.24c3.52-.2,5.2-4.07,6.39-14.79.76-6.85-2-17.72-6.86-24.88a23.86,23.86,0,0,1,3.7-7,10.22,10.22,0,0,1,16.79,0,24.1,24.1,0,0,1,3.7,7C45,25.05,42.27,35.92,43,42.77c1.19,10.72,2.86,14.59,6.38,14.79h.25c3.7,0,5.51-4.81,7.35-13.06a56.31,56.31,0,0,0-.49-25.45,7.35,7.35,0,0,1,3.33-2.32c2.85-.75,5.32,4,6.55,6.92,8.16,19.33-4,35-11.22,42a2.28,2.28,0,0,0,.68,3.71l.6.28A3.28,3.28,0,0,0,60.22,69C68.45,60.44,81,42.81,71.92,21.31c-4.38-10.37-9.8-11.37-13.59-10.38a11.17,11.17,0,0,0-4,2,27,27,0,0,0-3.5-5.8,16.19,16.19,0,0,0-26.15,0,27.06,27.06,0,0,0-3.51,5.8,11.28,11.28,0,0,0-4-2c-3.78-1-9.21,0-13.59,10.39C-5.37,42.69,7,60.24,15.23,68.85A3.54,3.54,0,0,0,19.31,69.58ZM51.9,26.79a49.68,49.68,0,0,1-.74,16.4c-.47,2.12-.9,3.74-1.27,5-.29-1.46-.6-3.43-.9-6.07C48.5,37.67,49.8,31.79,51.9,26.79Zm-28.22,0c2.11,5,3.41,10.87,2.91,15.3-.29,2.64-.6,4.61-.89,6.07-.37-1.24-.8-2.86-1.27-5A49.37,49.37,0,0,1,23.68,26.8Z"/></g></g></svg>