<svg id="Livello_1" data-name="Livello 1" xmlns="http://www.w3.org/2000/svg" viewBox="0 0 75.59 70.49"><defs><style>.cls-1{fill:#dfb2c6;stroke:#dfb2c6;stroke-miterlimit:10;}</style></defs><title>logo_comus</title><path class="cls-1" d="M238.94,257.88l.83-.38a2,2,0,0,0,.59-3.28c-7.13-7-19.73-22.9-11.55-42.28,1.23-2.9,3.7-7.66,6.55-6.91a7.27,7.27,0,0,1,3.33,2.32,56.45,56.45,0,0,0-.49,25.45c1.84,8.25,3.65,13.06,7.36,13.06h.24c3.52-.19,5.19-4.06,6.38-14.79.76-6.85-2-17.71-6.86-24.88a24,24,0,0,1,3.7-7,10.22,10.22,0,0,1,16.79,0,23.8,23.8,0,0,1,3.7,7c-4.85,7.17-7.62,18-6.86,24.88,1.2,10.73,2.87,14.6,6.39,14.79h.24c3.7,0,5.51-4.81,7.36-13.06a56.6,56.6,0,0,0-.49-25.45,7.3,7.3,0,0,1,3.32-2.32c2.86-.75,5.33,4,6.55,6.91,8.17,19.33-4,35-11.22,42a2.28,2.28,0,0,0,.69,3.71l.59.27a3.24,3.24,0,0,0,3.76-.67c8.24-8.56,20.79-26.18,11.71-47.68-4.38-10.38-9.81-11.38-13.59-10.39a11.12,11.12,0,0,0-4,2,27.06,27.06,0,0,0-3.51-5.8,16.19,16.19,0,0,0-26.15,0,27.44,27.44,0,0,0-3.5,5.8,11.2,11.2,0,0,0-4-2c-3.78-1-9.21,0-13.59,10.39-9,21.38,3.33,38.92,11.57,47.54A3.56,3.56,0,0,0,238.94,257.88Zm32.59-42.79a49.44,49.44,0,0,1-.75,16.4c-.47,2.11-.9,3.74-1.27,5-.29-1.45-.6-3.42-.89-6.06C268.12,226,269.43,220.08,271.53,215.09Zm-28.22,0c2.1,5,3.4,10.87,2.91,15.31-.29,2.64-.61,4.61-.9,6.06-.37-1.23-.79-2.85-1.27-5A49.69,49.69,0,0,1,243.31,215.09Z" transform="translate(-219.62 -188.3)"/></svg>